<?xml version="1.0" encoding="UTF-8" standalone="no"?>
<!DOCTYPE svg PUBLIC "-//W3C//DTD SVG 1.1//EN" "http://www.w3.org/Graphics/SVG/1.1/DTD/svg11.dtd">
<svg width="100%" height="100%" viewBox="0 0 3363 523" version="1.1" xmlns="http://www.w3.org/2000/svg" xmlns:xlink="http://www.w3.org/1999/xlink" xml:space="preserve" xmlns:serif="http://www.serif.com/" style="fill-rule:evenodd;clip-rule:evenodd;stroke-linejoin:round;stroke-miterlimit:2;">
    <g transform="matrix(1,0,0,1,-13237,-2945.28)">
        <g transform="matrix(0.959347,0,0,0.938529,11991.1,3714.13)">
            <g transform="matrix(14.5152,0,0,8.1436,792.146,-1463.29)">
                <g>
                    <g transform="matrix(1.6926,0,0,3.08381,-22.0269,-164.811)">
                        <path d="M37.135,82.091L37.135,93.364L40.463,93.364C42.166,93.364 43.354,92.524 44.026,90.845C44.393,89.923 44.577,88.825 44.577,87.552C44.577,85.794 44.301,84.444 43.75,83.503C43.2,82.562 42.104,82.091 40.463,82.091L37.135,82.091ZM41.073,79.091C42.143,79.107 43.034,79.232 43.745,79.466C44.956,79.864 45.936,80.595 46.686,81.657C47.288,82.517 47.698,83.446 47.916,84.446C48.135,85.446 48.245,86.399 48.245,87.306C48.245,89.603 47.784,91.548 46.862,93.142C45.612,95.29 43.682,96.364 41.073,96.364L33.631,96.364L33.631,79.091L41.073,79.091Z" style="fill:white;"/>
                    </g>
                    <g transform="matrix(1.70547,0,0,3.10725,-22.3668,-167.07)">
                        <path d="M55.711,83.286C55.774,83.286 55.827,83.288 55.87,83.292C55.912,83.296 56.008,83.302 56.157,83.31L56.157,86.732C55.946,86.708 55.758,86.692 55.594,86.685C55.43,86.677 55.297,86.673 55.196,86.673C53.852,86.673 52.95,87.11 52.489,87.985C52.231,88.478 52.102,89.235 52.102,90.259L52.102,96.364L48.739,96.364L48.739,83.591L51.926,83.591L51.926,85.817C52.442,84.966 52.891,84.384 53.274,84.071C53.899,83.548 54.711,83.286 55.711,83.286Z" style="fill:white;"/>
                    </g>
                    <g transform="matrix(1.6926,0,0,3.08381,-21.8115,-165.596)">
                        <path d="M58.389,98.814L58.811,98.837C59.139,98.853 59.452,98.841 59.749,98.802C60.046,98.763 60.296,98.673 60.499,98.532C60.694,98.399 60.876,98.122 61.044,97.7C61.212,97.278 61.28,97.021 61.249,96.927L56.561,83.591L60.276,83.591L63.065,93.013L65.702,83.591L69.253,83.591L64.87,96.153C64.026,98.575 63.358,100.077 62.866,100.659C62.374,101.241 61.389,101.532 59.913,101.532C59.616,101.532 59.378,101.53 59.198,101.526C59.018,101.523 58.749,101.509 58.389,101.485L58.389,98.814Z" style="fill:white;"/>
                    </g>
                    <g transform="matrix(1.65509,0,0,2.9982,-19.0774,-157.685)">
                        <path d="M71.663,92.286C71.733,92.88 71.886,93.302 72.12,93.552C72.534,93.997 73.3,94.22 74.417,94.22C75.073,94.22 75.595,94.122 75.981,93.927C76.368,93.732 76.561,93.439 76.561,93.048C76.561,92.673 76.405,92.388 76.093,92.192C75.78,91.997 74.62,91.661 72.612,91.185C71.167,90.825 70.147,90.376 69.553,89.837C68.96,89.306 68.663,88.54 68.663,87.54C68.663,86.36 69.126,85.347 70.052,84.499C70.977,83.651 72.28,83.228 73.96,83.228C75.553,83.228 76.852,83.546 77.856,84.183C78.86,84.819 79.436,85.919 79.585,87.482L76.245,87.482C76.198,87.052 76.077,86.712 75.882,86.462C75.514,86.009 74.889,85.782 74.007,85.782C73.28,85.782 72.762,85.896 72.454,86.122C72.145,86.349 71.991,86.614 71.991,86.919C71.991,87.302 72.155,87.579 72.483,87.751C72.811,87.931 73.971,88.239 75.964,88.677C77.292,88.989 78.288,89.462 78.952,90.095C79.608,90.735 79.936,91.536 79.936,92.497C79.936,93.763 79.466,94.796 78.524,95.597C77.583,96.398 76.128,96.798 74.159,96.798C72.151,96.798 70.669,96.374 69.712,95.526C68.755,94.679 68.276,93.599 68.276,92.286L71.663,92.286Z" style="fill:white;"/>
                    </g>
                    <g transform="matrix(1.6926,0,0,3.05704,-22.8492,-162.665)">
                        <path d="M80.429,86.087L79.656,83.708L81.438,83.708L81.438,80.146L84.742,80.146L84.742,83.708L86.817,83.708L86.817,86.087L84.104,86.087L84.742,86.701L84.742,92.837C84.742,93.36 84.809,93.687 84.942,93.816C85.074,93.944 85.481,94.009 86.16,94.009C86.262,94.009 86.369,94.007 86.483,94.003C86.596,93.999 86.707,93.993 86.817,93.985L86.817,96.482L85.235,96.54C83.656,96.595 82.578,96.321 82,95.72C81.625,95.337 81.438,94.747 81.438,93.95L81.438,86.087L80.429,86.087Z" style="fill:white;"/>
                    </g>
                    <g transform="matrix(1.64056,0,0,2.98899,-17.6816,-156.862)">
                        <path d="M92.772,94.009C93.748,94.009 94.498,93.661 95.022,92.966C95.545,92.271 95.807,91.282 95.807,90.001C95.807,88.72 95.545,87.733 95.022,87.042C94.498,86.351 93.748,86.005 92.772,86.005C91.795,86.005 91.043,86.351 90.516,87.042C89.988,87.733 89.725,88.72 89.725,90.001C89.725,91.282 89.988,92.271 90.516,92.966C91.043,93.661 91.795,94.009 92.772,94.009ZM99.311,90.001C99.311,91.876 98.772,93.48 97.693,94.812C96.615,96.144 94.979,96.81 92.783,96.81C90.588,96.81 88.951,96.144 87.873,94.812C86.795,93.48 86.256,91.876 86.256,90.001C86.256,88.157 86.795,86.56 87.873,85.208C88.951,83.857 90.588,83.181 92.783,83.181C94.979,83.181 96.615,83.857 97.693,85.208C98.772,86.56 99.311,88.157 99.311,90.001Z" style="fill:white;"/>
                    </g>
                    <g transform="matrix(1.6926,0,0,3.08381,-22.6563,-164.811)">
                        <path d="M106.859,83.286C108.18,83.286 109.26,83.632 110.1,84.323C110.94,85.015 111.359,86.161 111.359,87.763L111.359,96.364L107.938,96.364L107.938,88.595C107.938,87.923 107.848,87.407 107.668,87.048C107.34,86.392 106.715,86.064 105.793,86.064C104.66,86.064 103.883,86.544 103.461,87.505C103.242,88.013 103.133,88.661 103.133,89.45L103.133,96.364L99.805,96.364L99.805,83.614L103.027,83.614L103.027,85.478C103.457,84.821 103.863,84.349 104.246,84.06C104.934,83.544 105.805,83.286 106.859,83.286Z" style="fill:white;"/>
                    </g>
                    <g transform="matrix(0.0718129,0,0,0.130839,-208.907,61.0797)">
                        <path d="M5021.87,258.472L5006.48,244.275" style="fill:none;"/>
                    </g>
                    <g transform="matrix(1.64886,0,0,3.00412,-17.5559,-158.046)">
                        <path d="M117.801,86.005C117.027,86.005 116.427,86.247 116.002,86.732C115.576,87.216 115.308,87.872 115.199,88.7L120.39,88.7C120.336,87.817 120.068,87.148 119.588,86.691C119.107,86.233 118.511,86.005 117.801,86.005ZM117.801,83.251C118.863,83.251 119.82,83.45 120.672,83.849C120.803,83.91 120.932,83.978 121.057,84.05C121.678,84.413 122.21,84.912 122.655,85.548C122.698,85.609 122.74,85.672 122.781,85.735C123.281,86.493 123.605,87.372 123.754,88.372C123.84,88.958 123.875,89.802 123.859,90.903L115.117,90.903C115.164,92.185 115.566,93.083 116.324,93.599C116.785,93.919 117.34,94.079 117.988,94.079C118.676,94.079 119.234,93.884 119.664,93.493C119.898,93.282 120.105,92.989 120.285,92.614L123.695,92.614C123.609,93.372 123.215,94.142 122.511,94.923C121.418,96.165 119.886,96.786 117.918,96.786C116.293,96.786 114.859,96.263 113.617,95.216C112.375,94.169 111.754,92.466 111.754,90.107C111.754,87.896 112.314,86.2 113.435,85.021C114.556,83.841 116.011,83.251 117.801,83.251Z" style="fill:white;"/>
                    </g>
                    <g transform="matrix(1.6926,0,0,3.08381,-22.7826,-164.811)">
                        <path d="M132.223,87.036C133.316,87.036 134.182,86.817 134.818,86.38C135.455,85.942 135.773,85.153 135.773,84.013C135.773,82.786 135.328,81.95 134.437,81.505C133.961,81.271 133.324,81.153 132.527,81.153L126.832,81.153L126.832,87.036L132.223,87.036ZM124.5,79.149L132.469,79.149C133.781,79.149 134.863,79.341 135.715,79.724C137.332,80.458 138.141,81.814 138.141,83.79C138.141,84.821 137.928,85.665 137.502,86.321C137.076,86.978 136.48,87.505 135.715,87.903C136.387,88.177 136.892,88.536 137.232,88.982C137.572,89.427 137.762,90.149 137.801,91.149L137.883,93.458C137.906,94.114 137.961,94.603 138.047,94.923C138.187,95.47 138.437,95.821 138.797,95.978L138.797,96.364L135.937,96.364C135.859,96.216 135.797,96.024 135.75,95.79C135.703,95.556 135.664,95.103 135.633,94.431L135.492,91.56C135.437,90.435 135.019,89.681 134.238,89.298C133.793,89.087 133.094,88.982 132.141,88.982L126.832,88.982L126.832,96.364L124.5,96.364L124.5,79.149Z" style="fill:white;"/>
                    </g>
                    <g transform="matrix(1.6926,0,0,3.08381,-22.9901,-165.054)">
                        <path d="M140.967,93.024C140.967,93.634 141.189,94.114 141.635,94.466C142.08,94.817 142.607,94.993 143.217,94.993C143.959,94.993 144.678,94.821 145.373,94.478C146.545,93.907 147.131,92.974 147.131,91.677L147.131,89.978C146.873,90.142 146.541,90.278 146.135,90.388C145.728,90.497 145.33,90.575 144.939,90.622L143.662,90.786C142.896,90.888 142.322,91.048 141.939,91.267C141.291,91.634 140.967,92.22 140.967,93.024ZM146.076,88.759C146.56,88.696 146.885,88.493 147.049,88.149C147.142,87.962 147.189,87.692 147.189,87.341C147.189,86.622 146.933,86.101 146.422,85.776C145.91,85.452 145.178,85.29 144.224,85.29C143.123,85.29 142.342,85.587 141.881,86.181C141.623,86.509 141.455,86.997 141.377,87.646L139.408,87.646C139.447,86.099 139.949,85.023 140.914,84.417C141.879,83.812 142.998,83.509 144.271,83.509C145.748,83.509 146.947,83.79 147.869,84.353C148.783,84.915 149.24,85.79 149.24,86.978L149.24,94.208C149.24,94.427 149.285,94.603 149.375,94.735C149.465,94.868 149.654,94.935 149.943,94.935C150.037,94.935 150.142,94.929 150.26,94.917C150.377,94.905 150.502,94.888 150.635,94.864L150.635,96.423C150.306,96.517 150.056,96.575 149.885,96.599C149.713,96.622 149.478,96.634 149.181,96.634C148.455,96.634 147.928,96.376 147.599,95.86C147.428,95.587 147.306,95.2 147.236,94.7C146.806,95.263 146.189,95.751 145.385,96.165C144.58,96.579 143.693,96.786 142.724,96.786C141.56,96.786 140.609,96.433 139.871,95.726C139.133,95.019 138.763,94.134 138.763,93.071C138.763,91.907 139.127,91.005 139.853,90.364C140.58,89.724 141.533,89.329 142.713,89.181L146.076,88.759Z" style="fill:white;"/>
                    </g>
                    <g transform="matrix(1.6926,0,0,3.08381,-23.2179,-164.811)">
                        <path d="M152.353,90.235C152.353,91.579 152.638,92.704 153.208,93.61C153.779,94.517 154.693,94.97 155.951,94.97C156.927,94.97 157.73,94.55 158.359,93.71C158.988,92.87 159.302,91.665 159.302,90.095C159.302,88.509 158.978,87.335 158.33,86.573C157.681,85.812 156.88,85.431 155.927,85.431C154.865,85.431 154.003,85.837 153.343,86.649C152.683,87.462 152.353,88.657 152.353,90.235ZM155.529,83.591C156.49,83.591 157.294,83.794 157.943,84.2C158.318,84.435 158.744,84.845 159.22,85.431L159.22,79.091L161.248,79.091L161.248,96.364L159.349,96.364L159.349,94.618C158.857,95.392 158.275,95.95 157.603,96.294C156.931,96.638 156.162,96.81 155.294,96.81C153.896,96.81 152.685,96.222 151.662,95.046C150.638,93.87 150.126,92.306 150.126,90.353C150.126,88.524 150.593,86.941 151.527,85.601C152.46,84.261 153.794,83.591 155.529,83.591Z" style="fill:white;"/>
                    </g>
                    <g transform="matrix(1.6926,0,0,3.08381,-22.9474,-164.811)">
                        <path d="M162.205,83.872L164.349,83.872L164.349,96.364L162.205,96.364L162.205,83.872ZM162.205,79.149L164.349,79.149L164.349,83.03L162.205,81.54L162.205,79.149Z" style="fill:white;"/>
                    </g>
                    <g transform="matrix(1.6926,0,0,3.08381,-22.6889,-164.811)">
                        <path d="M170.837,95.005C172.236,95.005 173.195,94.476 173.714,93.417C174.234,92.358 174.493,91.181 174.493,89.884C174.493,88.712 174.306,87.759 173.931,87.024C173.337,85.868 172.314,85.29 170.861,85.29C169.572,85.29 168.634,85.782 168.048,86.767C167.462,87.751 167.169,88.939 167.169,90.329C167.169,91.665 167.462,92.778 168.048,93.669C168.634,94.56 169.564,95.005 170.837,95.005ZM170.919,83.45C172.536,83.45 173.904,83.989 175.021,85.067C176.138,86.146 176.697,87.732 176.697,89.825C176.697,91.849 176.204,93.521 175.22,94.841C174.236,96.161 172.708,96.821 170.638,96.821C168.911,96.821 167.54,96.237 166.525,95.069C165.509,93.901 165.001,92.333 165.001,90.364C165.001,88.255 165.536,86.575 166.607,85.325C167.677,84.075 169.115,83.45 170.919,83.45Z" style="fill:white;"/>
                    </g>
                </g>
            </g>
        </g>
    </g>
</svg>
